<svg width="98" height="98" viewBox="0 0 98 98" fill="none" xmlns="http://www.w3.org/2000/svg">
<g clip-path="url(#clip0_709_2429)">
<mask id="mask0_709_2429" style="mask-type:luminance" maskUnits="userSpaceOnUse" x="0" y="0" width="98" height="98">
<path d="M49 98C76.062 98 98 76.062 98 49C98 21.938 76.062 0 49 0C21.938 0 0 21.938 0 49C0 76.062 21.938 98 49 98Z" fill="white"/>
</mask>
<g mask="url(#mask0_709_2429)">
<path d="M49 98C76.062 98 98 76.062 98 49C98 21.938 76.062 0 49 0C21.938 0 0 21.938 0 49C0 76.062 21.938 98 49 98Z" fill="black"/>
<path d="M81.399 85.7606L37.6439 29.3999H29.4V68.5834H35.9951V37.7758L76.2218 89.7488C78.0344 88.5361 79.7639 87.2037 81.399 85.7606Z" fill="url(#paint0_linear_709_2429)"/>
<path d="M62.6113 29.3999H69.1448V68.5999H62.6113V29.3999Z" fill="url(#paint1_linear_709_2429)"/>
</g>
</g>
<defs>
<linearGradient id="paint0_linear_709_2429" x1="2922.26" y1="3432.17" x2="4658.71" y2="5584.43" gradientUnits="userSpaceOnUse">
<stop stop-color="white"/>
<stop offset="1" stop-color="white" stop-opacity="0"/>
</linearGradient>
<linearGradient id="paint1_linear_709_2429" x1="389.284" y1="29.3999" x2="378.23" y2="2908.13" gradientUnits="userSpaceOnUse">
<stop stop-color="white"/>
<stop offset="1" stop-color="white" stop-opacity="0"/>
</linearGradient>
<clipPath id="clip0_709_2429">
<rect width="98" height="98" fill="white"/>
</clipPath>
</defs>
</svg>
